<?xml version="1.0" encoding="UTF-8" standalone="no"?><!DOCTYPE svg PUBLIC "-//W3C//DTD SVG 1.1//EN" "http://www.w3.org/Graphics/SVG/1.1/DTD/svg11.dtd"><svg width="100%" height="100%" viewBox="0 0 2084 2084" version="1.1" xmlns="http://www.w3.org/2000/svg" xmlns:xlink="http://www.w3.org/1999/xlink" xml:space="preserve" xmlns:serif="http://www.serif.com/" style="fill-rule:evenodd;clip-rule:evenodd;stroke-linecap:square;stroke-linejoin:round;stroke-miterlimit:1.5;"><circle cx="1041.67" cy="1058.75" r="708.75" style="fill:#b290c2;"/><circle cx="1041.67" cy="1057.5" r="412.917" style="fill:#fff;"/><path d="M1041.67,1497.08c-242.5,0 -439.584,-197.083 -439.584,-439.583c0,-242.5 197.084,-439.583 439.584,-439.583c242.5,-0 439.583,197.083 439.583,439.583c0,242.5 -197.083,439.583 -439.583,439.583Zm-0,-826.25c-212.917,0 -386.667,173.334 -386.667,386.667c0,213.333 173.333,386.667 386.667,386.667c213.333,-0 386.666,-173.334 386.666,-386.667c0,-213.333 -173.75,-386.667 -386.666,-386.667Z" style="fill-rule:nonzero;"/><g><g><path d="M971.905,806.692c0,-13.239 -10.749,-23.988 -23.988,-23.988c-13.24,-0 -23.989,10.749 -23.989,23.988l0,501.616c0,13.239 10.749,23.988 23.989,23.988c13.239,0 23.988,-10.749 23.988,-23.988l0,-501.616Z" style="stroke:#000;stroke-width:1.84px;stroke-dasharray:0,0.09,0,0;"/><path d="M1159.4,806.692c0,-13.239 -10.749,-23.988 -23.988,-23.988c-13.24,-0 -23.989,10.749 -23.989,23.988l0,501.616c0,13.239 10.749,23.988 23.989,23.988c13.239,0 23.988,-10.749 23.988,-23.988l0,-501.616Z" style="stroke:#000;stroke-width:1.84px;stroke-dasharray:0,0.09,0,0;"/></g><g><path d="M790.859,1127.26c-13.24,0 -23.988,10.749 -23.988,23.989c-0,13.24 10.748,23.989 23.988,23.989l501.615,-0c13.24,-0 23.989,-10.749 23.989,-23.989c-0,-13.24 -10.749,-23.989 -23.989,-23.989l-501.615,0Z" style="stroke:#000;stroke-width:1.84px;stroke-dasharray:0,0.09,0,0;"/><path d="M790.859,939.761c-13.24,0 -23.988,10.749 -23.988,23.989c-0,13.24 10.748,23.989 23.988,23.989l501.615,-0c13.24,-0 23.989,-10.749 23.989,-23.989c-0,-13.24 -10.749,-23.989 -23.989,-23.989l-501.615,0Z" style="stroke:#000;stroke-width:1.84px;stroke-dasharray:0,0.09,0,0;"/></g></g></svg>