<?xml version="1.0" encoding="utf-8"?>
<!-- Generator: Adobe Illustrator 23.1.1, SVG Export Plug-In . SVG Version: 6.00 Build 0)  -->
<svg version="1.1" id="Layer_1" xmlns="http://www.w3.org/2000/svg" xmlns:xlink="http://www.w3.org/1999/xlink" x="0px" y="0px"
	 viewBox="0 0 500 500" style="enable-background:new 0 0 500 500;" xml:space="preserve">
<style type="text/css">
	.st0{fill:#9FCAAA;}
	.st1{fill:none;stroke:#1D1D1B;stroke-miterlimit:10;}
	.st2{fill:#FFFFFF;}
	.st3{fill:#A9D1ED;}
	.st4{fill:#B290C2;}
	.st5{fill:#FFFFFF;stroke:#000000;stroke-width:2.8346;stroke-miterlimit:10;}
	.st6{fill:none;stroke:#1D1D1B;stroke-width:4.4812;stroke-miterlimit:10;}
</style>
<text transform="matrix(1 0 0 1 -383.504 2013.082)" style="font-family:'AvenirNext-Bold'; font-size:21.2527px;">ID 67</text>
<circle class="st0" cx="-189.8" cy="2010.8" r="38"/>
<rect x="-245.6" y="1954.1" class="st1" width="111.6" height="111.6"/>
<text transform="matrix(1 0 0 1 -383.504 2168.623)" style="font-family:'AvenirNext-Bold'; font-size:21.2527px;">ID 68</text>
<circle class="st0" cx="-189.8" cy="2166.4" r="38"/>
<rect x="-245.6" y="2109.7" class="st1" width="111.6" height="111.6"/>
<text transform="matrix(1 0 0 1 -383.5032 1915.5601)" style="font-family:'AvenirNext-Bold'; font-size:16.644px;">MAPPING</text>
<circle class="st2" cx="-203.9" cy="1998.1" r="22.1"/>
<path d="M-147.7,2042.6c-7.3-7.3-14.6-14.5-21.9-21.8c-0.5-0.5-1.2-0.9-1.9-1.1c-1.6-0.5-3.3-0.9-4.9-1.4c-0.3-0.1-0.6-0.2-0.8-0.4
	c-1.1-1.1-2.2-2.2-3.4-3.4c4.5-6.6,6.2-13.8,4.7-21.6c-1.4-7.9-5.6-14.1-12.1-18.5c-11.6-7.9-27.5-6-36.9,4.4
	c-9.6,10.5-10.1,26.4-1.2,37.2c9.4,11.6,26.2,14.1,38.8,5.3c1,1,2.1,2,3,3c0.3,0.4,0.6,0.9,0.8,1.4c0.5,1.7,0.9,3.3,1.4,5
	c0.2,0.5,0.5,1.1,0.9,1.5c7.3,7.4,14.7,14.7,22.1,22.1c1.1,1.1,1.6,1.1,2.7,0c2.9-2.9,5.8-5.8,8.7-8.7
	C-146.5,2044.3-146.5,2043.8-147.7,2042.6z M-204,2020.2c-12.3-0.1-22.5-10-22.1-22.8c0.3-11.9,10.1-21.5,22.3-21.4
	c12.3,0.1,22.1,10,22.1,22.4C-181.9,2010.4-191.9,2020.3-204,2020.2z"/>
<path d="M-207.4,2002.2l0,7.9c0,1.9,1.5,3.4,3.4,3.4c1.9,0,3.4-1.5,3.4-3.4l0-7.9l7.9,0c1.9,0,3.4-1.5,3.4-3.4
	c0-1.9-1.5-3.4-3.4-3.4l-7.9,0v-7.9c0-1.9-1.5-3.4-3.4-3.4c-1.9,0-3.4,1.5-3.4,3.4v7.9l-7.9,0c-1.9,0-3.4,1.5-3.4,3.4
	c0,1.9,1.5,3.4,3.4,3.4L-207.4,2002.2z"/>
<circle class="st2" cx="-204.9" cy="2140.8" r="22.1"/>
<path d="M-148.7,2185.3c-7.3-7.3-14.6-14.5-21.9-21.8c-0.5-0.5-1.2-0.9-1.9-1.1c-1.6-0.5-3.3-0.9-4.9-1.4c-0.3-0.1-0.6-0.2-0.8-0.4
	c-1.1-1.1-2.2-2.2-3.4-3.4c4.5-6.6,6.2-13.8,4.7-21.6c-1.4-7.9-5.6-14.1-12.1-18.5c-11.6-7.9-27.5-6-36.9,4.4
	c-9.6,10.5-10.1,26.4-1.2,37.2c9.4,11.6,26.2,14.1,38.8,5.3c1,1,2.1,2,3,3c0.3,0.4,0.6,0.9,0.8,1.4c0.5,1.7,0.9,3.3,1.4,5
	c0.2,0.5,0.5,1.1,0.9,1.5c7.3,7.4,14.7,14.7,22.1,22.1c1.1,1.1,1.6,1.1,2.7,0c2.9-2.9,5.8-5.8,8.7-8.7
	C-147.5,2187-147.5,2186.5-148.7,2185.3z M-205,2162.9c-12.3-0.1-22.5-10-22.1-22.8c0.3-11.9,10.1-21.5,22.3-21.4
	c12.3,0.1,22.1,10,22.1,22.4C-182.9,2153.1-192.9,2163-205,2162.9z"/>
<path d="M-201.6,2144.9l7.9,0c1.9,0,3.4-1.5,3.4-3.4c0-1.9-1.5-3.4-3.4-3.4l-7.9,0l-6.8,0l-7.9,0c-1.9,0-3.4,1.5-3.4,3.4
	c0,1.9,1.5,3.4,3.4,3.4l7.9,0H-201.6z"/>
<text transform="matrix(1 0 0 1 -383.504 1083.4701)" style="font-family:'AvenirNext-Bold'; font-size:21.2527px;">ID 62</text>
<text transform="matrix(1 0 0 1 -383.504 1223.5946)" style="font-family:'AvenirNext-Bold'; font-size:21.2527px;">ID 63</text>
<text transform="matrix(1 0 0 1 -383.504 1370.0287)" style="font-family:'AvenirNext-Bold'; font-size:21.2527px;">ID 64</text>
<text transform="matrix(1 0 0 1 -383.504 1524.203)" style="font-family:'AvenirNext-Bold'; font-size:21.2527px;">ID 65</text>
<circle class="st3" cx="-189.8" cy="1079.3" r="38"/>
<rect x="-245.6" y="1022.6" class="st1" width="111.6" height="111.6"/>
<circle class="st4" cx="-189.8" cy="1222.5" r="38"/>
<rect x="-245.6" y="1165.8" class="st1" width="111.6" height="111.6"/>
<circle class="st3" cx="-189.8" cy="1366.4" r="38"/>
<rect x="-245.6" y="1309.7" class="st1" width="111.6" height="111.6"/>
<circle class="st0" cx="-189.8" cy="1521.9" r="38"/>
<rect x="-245.6" y="1465.2" class="st1" width="111.6" height="111.6"/>
<text transform="matrix(1 0 0 1 -383.504 1681.1112)" style="font-family:'AvenirNext-Bold'; font-size:21.2527px;">ID 66</text>
<circle class="st3" cx="-189.8" cy="1677.5" r="38"/>
<rect x="-245.6" y="1620.8" class="st1" width="111.6" height="111.6"/>
<text transform="matrix(1 0 0 1 -383.5032 1002.0413)" style="font-family:'AvenirNext-Bold'; font-size:16.644px;">MAPPING</text>
<circle class="st2" cx="-190.1" cy="1366.4" r="22.1"/>
<path d="M-190.1,1389.9c-13,0-23.5-10.6-23.5-23.5s10.6-23.5,23.5-23.5c13,0,23.5,10.6,23.5,23.5S-177.1,1389.9-190.1,1389.9z
	 M-190.1,1345.7c-11.4,0-20.7,9.3-20.7,20.7s9.3,20.7,20.7,20.7s20.7-9.3,20.7-20.7S-178.7,1345.7-190.1,1345.7z"/>
<circle class="st2" cx="-189.9" cy="1079" r="22.1"/>
<path d="M-189.9,1102.5c-13,0-23.5-10.6-23.5-23.5s10.6-23.5,23.5-23.5c13,0,23.5,10.6,23.5,23.5S-176.9,1102.5-189.9,1102.5z
	 M-189.9,1058.3c-11.4,0-20.7,9.3-20.7,20.7s9.3,20.7,20.7,20.7s20.7-9.3,20.7-20.7S-178.5,1058.3-189.9,1058.3z"/>
<circle class="st2" cx="-189.9" cy="1222.5" r="22.1"/>
<path d="M-189.9,1246c-13,0-23.5-10.6-23.5-23.5c0-13,10.6-23.5,23.5-23.5c13,0,23.5,10.6,23.5,23.5
	C-166.4,1235.5-176.9,1246-189.9,1246z M-189.9,1201.8c-11.4,0-20.7,9.3-20.7,20.7s9.3,20.7,20.7,20.7s20.7-9.3,20.7-20.7
	S-178.5,1201.8-189.9,1201.8z"/>
<path d="M-186.6,1083.1l7.9,0c1.9,0,3.4-1.5,3.4-3.4c0-1.9-1.5-3.4-3.4-3.4l-7.9,0l-6.8,0l-7.9,0c-1.9,0-3.4,1.5-3.4,3.4
	c0,1.9,1.5,3.4,3.4,3.4l7.9,0H-186.6z"/>
<circle class="st2" cx="-204.9" cy="1662.4" r="22.1"/>
<path d="M-148.7,1706.9c-7.3-7.3-14.6-14.5-21.9-21.8c-0.5-0.5-1.2-0.9-1.9-1.1c-1.6-0.5-3.3-0.9-4.9-1.4c-0.3-0.1-0.6-0.2-0.8-0.4
	c-1.1-1.1-2.2-2.2-3.4-3.4c4.5-6.6,6.2-13.8,4.7-21.6c-1.4-7.9-5.6-14.1-12.1-18.5c-11.6-7.9-27.5-6-36.9,4.4
	c-9.6,10.5-10.1,26.4-1.2,37.2c9.4,11.6,26.2,14.1,38.8,5.3c1,1,2.1,2,3,3c0.3,0.4,0.6,0.9,0.8,1.4c0.5,1.7,0.9,3.3,1.4,5
	c0.2,0.5,0.5,1.1,0.9,1.5c7.3,7.4,14.7,14.7,22.1,22.1c1.1,1.1,1.6,1.1,2.7,0c2.9-2.9,5.8-5.8,8.7-8.7
	C-147.5,1708.6-147.5,1708.1-148.7,1706.9z M-205,1684.5c-12.3-0.1-22.5-10-22.1-22.8c0.3-11.9,10.1-21.5,22.3-21.4
	c12.3,0.1,22.1,10,22.1,22.4C-182.9,1674.6-192.9,1684.5-205,1684.5z"/>
<g>
	<path d="M-190.8,1365.4l-12-7.9c-0.4-0.2-0.9-0.3-1.2-0.1c-0.4,0.2-0.6,0.6-0.6,1.1v15.8c0,0.4,0.2,0.9,0.6,1.1
		c0.2,0.1,0.4,0.1,0.6,0.1c0.2,0,0.5-0.1,0.7-0.2l12-7.9c0.3-0.2,0.5-0.6,0.5-1C-190.3,1366-190.5,1365.6-190.8,1365.4z"/>
	<path d="M-176,1365.4l-12-7.9c-0.4-0.2-0.9-0.3-1.2-0.1c-0.4,0.2-0.6,0.6-0.6,1.1v15.8c0,0.4,0.2,0.9,0.6,1.1
		c0.2,0.1,0.4,0.1,0.6,0.1c0.2,0,0.5-0.1,0.7-0.2l12-7.9c0.3-0.2,0.5-0.6,0.5-1C-175.4,1366-175.6,1365.6-176,1365.4z"/>
</g>
<circle class="st5" cx="-190.1" cy="1521.9" r="22.1"/>
<path class="st2" d="M-196.1,1225c0,0,0.5-2.4,0.5-4.2l0.1-9.8c0,0-0.1-2.3,1.5-2.2c0,0,1.9-0.4,1.8,2l0-1.8c0,0-0.1-2.2,1.5-2.2
	c0,0,1.9-0.3,1.9,1.8l0,1.6c0,0,0.2-1.4,1.8-1.4c1.6,0,1.7,2,1.7,2l0,2.8c0,0-0.1-1.6,1.6-1.6c1.7,0,1.5,2.1,1.5,2.1l0.8,12.2
	c0,0,0.1,6.5-2.2,8.5c-3.2,2.7-9.6,1.9-9.6,1.9c-3.4,0-6.5-5.2-6.5-5.2l-4.4-7c0,0-0.9-1.6,0.9-2.4c1.9-0.8,5.2,5,5.2,5
	S-196.6,1229.2-196.1,1225z"/>
<path class="st2" d="M-192.2,1210.8l-0.1,9.9"/>
<line class="st2" x1="-188.8" y1="1210.2" x2="-188.9" y2="1220.7"/>
<line class="st2" x1="-185.4" y1="1213.6" x2="-185.4" y2="1220.8"/>
<path d="M-180.7,1226.2l-0.8-12.1c0-0.1,0.1-1.4-0.7-2.2c-0.4-0.4-0.9-0.6-1.5-0.6c-0.3,0-0.6,0.1-0.9,0.1l0-0.6
	c0-0.9-0.5-2.7-2.4-2.7c-0.4,0-0.8,0.1-1.1,0.2c-0.1-0.7-0.3-1.3-0.8-1.7c-0.7-0.6-1.6-0.5-1.9-0.5c-0.6,0-1.1,0.2-1.4,0.6
	c-0.4,0.5-0.6,1.1-0.7,1.6c-0.5-0.2-1-0.2-1.2-0.2c-0.6,0-1.1,0.2-1.4,0.6c-0.8,0.8-0.7,2.2-0.7,2.3l-0.1,9.9c0.1,1.7-0.4,4-0.5,4
	c0,0,0,0,0,0.1c-0.1,1.1-0.3,1.6-0.4,1.8c0,0,0,0-0.1-0.1c-0.9-1.5-3.9-6.3-6.1-5.3c-0.8,0.4-1.3,0.9-1.5,1.5
	c-0.3,1,0.2,1.8,0.2,1.9l4.4,6.9c0.1,0.2,3.3,5.5,7,5.5c0,0,0,0,0.1,0c0.1,0,1,0.1,2.2,0.1c2.3,0,5.7-0.3,7.9-2.2
	C-180.7,1233.1-180.7,1226.9-180.7,1226.2z M-184.1,1234.2c-2.9,2.5-8.9,1.8-9.1,1.7c0,0,0,0,0,0c-2.4,0-5.1-3.5-5.9-4.9l-4.4-6.9
	c0,0-0.2-0.4-0.1-0.8c0.1-0.3,0.3-0.5,0.7-0.6c0.6-0.3,2.8,2,4.3,4.7c0.3,0.5,0.9,1,1.6,0.8c0.8-0.2,1.3-1.1,1.5-3.2
	c0.1-0.3,0.5-2.6,0.5-4.3l0.1-9.9c0-0.2,0-1,0.4-1.3c0.1-0.1,0.2-0.2,0.5-0.2c0,0,0,0,0,0c0,0,0.1,0,0.1,0c0,0,0.4-0.1,0.6,0.2
	c0.3,0.2,0.4,0.8,0.3,1.2v0l-0.1,9.9c0,0.4,0.3,0.7,0.7,0.7c0,0,0,0,0,0c0.4,0,0.7-0.3,0.7-0.7l0.1-9.9l0-1.9c0-0.2,0-0.9,0.3-1.3
	c0.1-0.1,0.2-0.2,0.4-0.2c0,0,0.1,0,0.1,0c0,0,0.5-0.1,0.8,0.2c0.2,0.2,0.3,0.5,0.3,0.9l0,1.6l-0.1,10.5c0,0.4,0.3,0.7,0.7,0.7
	c0,0,0,0,0,0c0.4,0,0.7-0.3,0.7-0.7l0.1-10.4c0-0.1,0.2-0.8,1.1-0.8c0,0,0,0,0,0c0.9,0,0.9,1.2,0.9,1.3l0,2.7c0,0,0,0,0,0.1
	c0,0,0,0,0,0l-0.1,7.1c0,0.4,0.3,0.7,0.7,0.7c0,0,0,0,0,0c0.4,0,0.7-0.3,0.7-0.7l0.1-7.1v-0.1c0-0.1,0.1-0.4,0.2-0.6
	c0.1-0.1,0.3-0.2,0.6-0.2c0,0,0,0,0,0c0.3,0,0.4,0.1,0.5,0.2c0.3,0.3,0.3,0.9,0.3,1.2l0.8,12.1
	C-182.1,1228-182.4,1232.7-184.1,1234.2z"/>
<text transform="matrix(1 0 0 1 -383.504 135.5748)" style="font-family:'AvenirNext-Bold'; font-size:21.2527px;">ID 57</text>
<text transform="matrix(1 0 0 1 -383.504 278.1617)" style="font-family:'AvenirNext-Bold'; font-size:21.2527px;">ID 58</text>
<text transform="matrix(1 0 0 1 -383.504 419.9291)" style="font-family:'AvenirNext-Bold'; font-size:21.2527px;">ID 59</text>
<text transform="matrix(1 0 0 1 -383.504 566.9921)" style="font-family:'AvenirNext-Bold'; font-size:21.2527px;">ID 60</text>
<text transform="matrix(1 0 0 1 -383.504 703.5809)" style="font-family:'AvenirNext-Bold'; font-size:21.2527px;">ID 61</text>
<circle class="st4" cx="250" cy="254.1" r="170.1"/>
<rect class="st6" width="500" height="500"/>
<text transform="matrix(1 0 0 1 -383.5032 66.3693)" style="font-family:'AvenirNext-Bold'; font-size:16.644px;">MAPPING</text>
<circle class="st2" cx="250" cy="253.8" r="99.1"/>
<path d="M250,359.3c-58.2,0-105.5-47.3-105.5-105.5c0-58.2,47.3-105.5,105.5-105.5c58.2,0,105.5,47.3,105.5,105.5
	C355.5,312,308.2,359.3,250,359.3z M250,161c-51.1,0-92.8,41.6-92.8,92.8s41.6,92.8,92.8,92.8s92.8-41.6,92.8-92.8
	S301.1,161,250,161z"/>
<path d="M234.1,272.1l0,35.5c0,8.4,6.8,15.3,15.2,15.2c8.4,0,15.2-6.8,15.2-15.2l0-35.5l35.5,0c8.4,0,15.3-6.8,15.3-15.3
	c0-8.4-6.8-15.3-15.3-15.2l-35.5,0v-35.5c0-8.4-6.8-15.3-15.2-15.2c-8.4,0-15.3,6.8-15.3,15.3v35.5l-35.5,0
	c-8.4,0-15.2,6.8-15.2,15.2c0,8.4,6.8,15.3,15.2,15.2L234.1,272.1z"/>
<g>
	<path d="M-189.3,1523l12,7.9c0.4,0.2,0.9,0.3,1.2,0.1c0.4-0.2,0.6-0.6,0.6-1.1v-15.8c0-0.4-0.2-0.9-0.6-1.1
		c-0.2-0.1-0.4-0.1-0.6-0.1c-0.2,0-0.5,0.1-0.7,0.2l-12,7.9c-0.3,0.2-0.5,0.6-0.5,1C-189.9,1522.4-189.7,1522.7-189.3,1523z"/>
	<path d="M-204.2,1523l12,7.9c0.4,0.2,0.9,0.3,1.2,0.1c0.4-0.2,0.6-0.6,0.6-1.1v-15.8c0-0.4-0.2-0.9-0.6-1.1
		c-0.2-0.1-0.4-0.1-0.6-0.1c-0.2,0-0.5,0.1-0.7,0.2l-12,7.9c-0.3,0.2-0.5,0.6-0.5,1C-204.8,1522.4-204.5,1522.7-204.2,1523z"/>
</g>
</svg>
