<?xml version="1.0" encoding="UTF-8" standalone="no"?><!DOCTYPE svg PUBLIC "-//W3C//DTD SVG 1.1//EN" "http://www.w3.org/Graphics/SVG/1.1/DTD/svg11.dtd"><svg width="100%" height="100%" viewBox="0 0 2084 2084" version="1.1" xmlns="http://www.w3.org/2000/svg" xmlns:xlink="http://www.w3.org/1999/xlink" xml:space="preserve" xmlns:serif="http://www.serif.com/" style="fill-rule:evenodd;clip-rule:evenodd;stroke-linejoin:round;stroke-miterlimit:2;"><circle cx="1041.67" cy="1057.5" r="708.75" style="fill:#b290c2;"/><circle cx="1041.67" cy="1057.5" r="412.917" style="fill:#fff;"/><path d="M847.356,1184.05c-18.7,18.7 -18.7,49.064 0,67.764c18.701,18.7 49.065,18.7 67.765,0l320.856,-320.856c18.7,-18.7 18.7,-49.064 -0,-67.764c-18.7,-18.7 -49.064,-18.7 -67.765,-0l-320.856,320.856Z"/><circle cx="1159.66" cy="1175.5" r="83.333"/><circle cx="923.668" cy="939.502" r="83.333"/><path d="M1041.67,1497.08c-242.5,0 -439.584,-197.083 -439.584,-439.583c0,-242.5 197.084,-439.583 439.584,-439.583c242.5,-0 439.583,197.083 439.583,439.583c0,242.5 -197.083,439.583 -439.583,439.583Zm-0,-826.25c-212.917,0 -386.667,173.334 -386.667,386.667c0,213.333 173.333,386.667 386.667,386.667c213.333,-0 386.666,-173.334 386.666,-386.667c0,-213.333 -173.75,-386.667 -386.666,-386.667Z" style="fill-rule:nonzero;"/></svg>